<svg width="14" height="16" viewBox="0 0 14 16" fill="none" xmlns="http://www.w3.org/2000/svg">
<path fill-rule="evenodd" clip-rule="evenodd" d="M0 6.65421C0 2.97432 3.07511 0 6.79476 0C10.5249 0 13.6 2.97432 13.6 6.65421C13.6 8.50856 12.9256 10.2301 11.8156 11.6893C10.5911 13.2988 9.08174 14.7012 7.38284 15.802C6.99402 16.0564 6.64311 16.0756 6.21637 15.802C4.50779 14.7012 2.99847 13.2988 1.7844 11.6893C0.673588 10.2301 0 8.50856 0 6.65421ZM4.55543 6.86141C4.55543 8.09417 5.56138 9.06375 6.79481 9.06375C8.02905 9.06375 9.04467 8.09417 9.04467 6.86141C9.04467 5.63824 8.02905 4.62147 6.79481 4.62147C5.56138 4.62147 4.55543 5.63824 4.55543 6.86141Z" fill="white"/>
</svg>
